<svg id="Layer_1" height="512" viewBox="0 0 512 512" width="512" xmlns="http://www.w3.org/2000/svg" data-name="Layer 1"><path d="m256 0c141.385 0 256 114.615 256 256s-114.615 256-256 256-256-114.615-256-256 114.615-256 256-256zm1.484 239.162 39.087-24.979 41.736-27.7-80.823-53.633zm80.823 86.349-41.736-27.7-39.087-24.979v106.322zm-31.443-95.66 53.579-35.551a9.367 9.367 0 0 0 0-15.621l-107.155-71.118a9.375 9.375 0 0 0 -14.554 7.816v123.223l-76.945-49.165a9.374 9.374 0 1 0 -10.1 15.8l79.444 50.765-79.441 50.766a9.375 9.375 0 0 0 10.1 15.8l76.942-49.166v123.227a9.37 9.37 0 0 0 14.554 7.81l107.155-71.115a9.367 9.367 0 0 0 0-15.621l-53.579-35.555c-.038-.029-.085-.058-.132-.088l-40.776-26.058 40.776-26.056a.868.868 0 0 0 .132-.093z" fill="#0291f7" fill-rule="evenodd"/></svg>