<svg height="512pt" viewBox="-45 0 511 512" width="512pt" xmlns="http://www.w3.org/2000/svg"><path d="M416.004 83.184 339.3 6.48A22.128 22.128 0 0 0 323.656 0H123.453c-8.492 0-15.375 6.883-15.375 15.371V71.54h108.004a22.126 22.126 0 0 1 15.64 6.48l71.555 71.551a22.124 22.124 0 0 1 6.477 15.645v280.394h97.355c8.493 0 15.375-6.882 15.375-15.375V98.824a22.119 22.119 0 0 0-6.48-15.64zm0 0" fill="#8bcaff"/><path d="M334.18 149.574 262.629 78.02a22.135 22.135 0 0 0-15.645-6.48h-30.906a22.128 22.128 0 0 1 15.645 6.48l71.55 71.554a22.119 22.119 0 0 1 6.48 15.64V445.61h30.907V165.215a22.119 22.119 0 0 0-6.48-15.64zM154.355 0h-30.902c-8.492 0-15.375 6.883-15.375 15.371V71.54h30.906V15.371C138.984 6.883 145.867 0 154.355 0zm0 0" fill="#60b8ff"/><g fill="#22a7ff"><path d="M354.734 145.023h-56.007l4.546 4.551a22.119 22.119 0 0 1 6.48 15.64v2.595h44.981c6.29 0 11.391-5.102 11.391-11.391 0-6.293-5.102-11.395-11.39-11.395zM354.734 196.445h-44.98v22.785h44.98c6.29 0 11.391-5.101 11.391-11.394 0-6.29-5.102-11.39-11.39-11.39zM354.734 247.867h-44.98v22.785h44.98c6.29 0 11.391-5.101 11.391-11.394 0-6.29-5.102-11.39-11.39-11.39zM354.734 299.29h-44.98v22.784h44.98c6.29 0 11.391-5.101 11.391-11.39 0-6.293-5.102-11.395-11.39-11.395zM354.734 350.71h-44.98v22.786h44.98c6.29 0 11.391-5.101 11.391-11.39 0-6.294-5.102-11.395-11.39-11.395zM323.656 0a22.128 22.128 0 0 1 15.645 6.48l76.703 76.704a22.119 22.119 0 0 1 6.48 15.64v.426h-87.046c-6.739 0-12.204-5.465-12.204-12.203V0zm0 0"/></g><path d="M354.14 87.047V21.32L339.3 6.48A22.128 22.128 0 0 0 323.657 0h-.422v87.047c0 6.738 5.465 12.203 12.204 12.203h30.902c-6.735 0-12.2-5.465-12.2-12.203zM362.207 147.832a11.352 11.352 0 0 1-7.473 2.805h-50.496c3.532 4.023 5.516 9.191 5.516 14.578v2.594h44.98c6.29 0 11.391-5.102 11.391-11.395 0-3.426-1.523-6.496-3.918-8.582zM362.207 199.254a11.352 11.352 0 0 1-7.473 2.805h-44.98v17.171h44.98c6.29 0 11.391-5.101 11.391-11.39 0-3.43-1.523-6.5-3.918-8.586zM362.207 250.676a11.352 11.352 0 0 1-7.473 2.804h-44.98v17.172h44.98c6.29 0 11.391-5.101 11.391-11.39 0-3.434-1.523-6.5-3.918-8.586zM362.207 302.098a11.352 11.352 0 0 1-7.473 2.804h-44.98v17.172h44.98c6.29 0 11.391-5.101 11.391-11.39 0-3.43-1.523-6.497-3.918-8.586zM362.207 353.52a11.356 11.356 0 0 1-7.473 2.808h-44.98v17.168h44.98c6.29 0 11.391-5.101 11.391-11.39 0-3.43-1.523-6.497-3.918-8.586zm0 0" fill="#0094fd"/><path d="M15.871 512h283.66c8.492 0 15.375-6.883 15.375-15.371V165.215a22.119 22.119 0 0 0-6.48-15.64l-76.703-76.708a22.122 22.122 0 0 0-15.641-6.476H15.875C7.383 66.39.5 73.273.5 81.76v414.864C.5 505.117 7.383 512 15.871 512zm0 0" fill="#d9edff"/><path d="M31.406 496.629V81.762c0-8.489 6.883-15.371 15.371-15.371H15.871C7.383 66.39.5 73.273.5 81.76v414.864C.5 505.117 7.383 512 15.871 512h30.906c-8.488 0-15.37-6.883-15.37-15.371zM216.078 66.39a22.14 22.14 0 0 1 15.645 6.477l76.703 76.707a22.119 22.119 0 0 1 6.48 15.64v.423H227.86c-6.738 0-12.203-5.461-12.203-12.203V66.39zm0 0" fill="#b4dbff"/><path d="M246.563 153.434V87.707l-14.84-14.84a22.124 22.124 0 0 0-15.645-6.476h-.422v87.043c0 6.742 5.461 12.203 12.203 12.203h30.903c-6.739 0-12.2-5.461-12.2-12.203zm0 0" fill="#8bcaff"/><path d="M247.152 234.195H68.25c-6.293 0-11.39-5.097-11.39-11.39 0-6.29 5.097-11.39 11.39-11.39h178.906c6.29 0 11.39 5.1 11.39 11.39 0 6.293-5.1 11.39-11.394 11.39zM247.152 285.621H68.25c-6.293 0-11.39-5.101-11.39-11.394 0-6.29 5.097-11.391 11.39-11.391h178.906c6.29 0 11.39 5.101 11.39 11.39 0 6.294-5.1 11.395-11.394 11.395zM247.152 337.04H68.25c-6.293 0-11.39-5.099-11.39-11.392 0-6.289 5.097-11.39 11.39-11.39h178.906c6.29 0 11.39 5.101 11.39 11.39 0 6.293-5.1 11.391-11.394 11.391zM247.152 388.465H68.25c-6.293 0-11.39-5.102-11.39-11.395 0-6.289 5.097-11.39 11.39-11.39h178.906c6.29 0 11.39 5.101 11.39 11.39 0 6.293-5.1 11.395-11.394 11.395zM247.152 439.887H68.25c-6.293 0-11.39-5.102-11.39-11.395 0-6.289 5.097-11.39 11.39-11.39h178.906c6.29 0 11.39 5.101 11.39 11.39 0 6.293-5.1 11.395-11.394 11.395zm0 0" fill="#b4dbff"/><path d="M254.629 214.219a11.338 11.338 0 0 1-7.477 2.808H68.25a11.32 11.32 0 0 1-7.473-2.808 11.353 11.353 0 0 0-3.918 8.586c0 6.293 5.098 11.39 11.391 11.39h178.906c6.29 0 11.39-5.097 11.39-11.39 0-3.43-1.523-6.496-3.917-8.586zM254.629 265.645a11.355 11.355 0 0 1-7.477 2.804H68.25a11.337 11.337 0 0 1-7.473-2.804 11.345 11.345 0 0 0-3.918 8.582c0 6.293 5.098 11.394 11.391 11.394h178.906c6.29 0 11.39-5.101 11.39-11.394 0-3.426-1.523-6.497-3.917-8.582zM254.629 317.066a11.355 11.355 0 0 1-7.477 2.805H68.25a11.337 11.337 0 0 1-7.473-2.805 11.345 11.345 0 0 0-3.918 8.582c0 6.293 5.098 11.395 11.391 11.395h178.906c6.29 0 11.39-5.102 11.39-11.395 0-3.425-1.523-6.496-3.917-8.582zM254.629 368.488a11.355 11.355 0 0 1-7.477 2.805H68.25a11.337 11.337 0 0 1-7.473-2.805 11.338 11.338 0 0 0-3.918 8.582c0 6.293 5.098 11.395 11.391 11.395h178.906c6.29 0 11.39-5.102 11.39-11.395 0-3.43-1.523-6.496-3.917-8.582zM254.629 419.91a11.355 11.355 0 0 1-7.477 2.805H68.25a11.337 11.337 0 0 1-7.473-2.805 11.338 11.338 0 0 0-3.918 8.582c0 6.293 5.098 11.395 11.391 11.395h178.906c6.29 0 11.39-5.102 11.39-11.395 0-3.43-1.523-6.496-3.917-8.582zm0 0" fill="#8bcaff"/></svg>