<svg xmlns="http://www.w3.org/2000/svg" height="512" width="512" xmlns:v="https://vecta.io/nano"><circle cx="256" cy="256" fill="#2ed1e2" r="248.5"/><path d="M256 7.5c-5.038 0-10.036.168-15 .464C371.256 15.721 474.5 123.795 474.5 256S371.256 496.279 241 504.036c4.964.296 9.962.464 15 .464 137.243 0 248.5-111.257 248.5-248.5S393.243 7.5 256 7.5z" fill="#02c7dd"/><path d="M437.02 74.98C388.667 26.629 324.38 0 256 0S123.333 26.629 74.98 74.98 0 187.62 0 256s26.629 132.668 74.98 181.02S187.62 512 256 512s132.667-26.629 181.02-74.98S512 324.38 512 256s-26.629-132.668-74.98-181.02zm59.852 173.52h-67.005c-1.178-60.848-16.67-118.13-44.098-163.235 10.108-2.941 19.992-6.235 29.616-9.866 48.268 42.647 79.372 104.284 81.487 173.101zM304.962 78.554c-6.4-26.99-13.905-47.073-22.448-60.182 30.073 7.69 57.301 28.225 79.141 57.748-17.858 4.246-36.306 7.405-55.101 9.438l-1.592-7.004zm-14.595 3.461l1.134 4.924c-11.745.885-23.598 1.336-35.501 1.336s-23.748-.475-35.495-1.361l1.128-4.899C233.361 32.551 247.477 15 256 15s22.639 17.551 34.367 67.015zM204.606 248.5c.38-54.102 4.865-105.156 12.826-146.758 12.758 1.015 25.637 1.534 38.568 1.534s25.812-.518 38.568-1.532c7.96 41.602 12.445 92.655 12.825 146.757H204.606zm102.788 15c-.38 54.102-4.865 105.156-12.826 146.759A486.59 486.59 0 0 0 256 408.725a487.01 487.01 0 0 0-38.568 1.533c-7.961-41.602-12.446-92.656-12.826-146.758zM207.038 78.554l-1.593 7c-18.792-2.032-37.227-5.213-55.084-9.458 21.837-29.511 49.059-50.037 79.124-57.725-8.542 13.11-16.048 33.192-22.447 60.183zm-4.601 21.761c-7.969 42.277-12.453 93.774-12.831 148.185H97.137c1.249-61.639 17.833-117.523 44.155-159.157 19.761 4.973 40.249 8.649 61.145 10.972zM189.606 263.5c.378 54.41 4.862 105.907 12.831 148.184-20.897 2.323-41.385 5.999-61.146 10.971-26.322-41.633-42.905-97.517-44.154-159.155zm15.839 162.947l1.592 7c6.4 26.99 13.905 47.073 22.448 60.182-30.065-7.688-57.287-28.214-79.124-57.725 17.856-4.246 36.292-7.425 55.084-9.457zm16.188 3.538l-1.128-4.9c11.746-.885 23.593-1.361 35.495-1.361s23.747.476 35.495 1.362l-1.128 4.899C278.639 479.449 264.523 497 256 497s-22.639-17.551-34.367-67.015zm83.329 3.461l1.593-7.002c18.791 2.033 37.227 5.215 55.084 9.459-21.837 29.511-49.059 50.037-79.124 57.725 8.542-13.109 16.048-33.191 22.447-60.182zm4.601-21.76c7.969-42.277 12.453-93.775 12.831-148.186h92.469c-1.249 61.639-17.834 117.524-44.156 159.158-19.761-4.972-40.249-8.649-61.144-10.972zM322.394 248.5c-.378-54.409-4.862-105.905-12.83-148.182 20.898-2.323 41.385-5.998 61.147-10.971 26.321 41.633 42.904 97.516 44.153 159.153zm79.528-184.164c-8.076 2.835-16.329 5.432-24.739 7.777-12.196-17.435-25.842-31.914-40.543-43.22 23.678 8.433 45.658 20.467 65.282 35.443zm-267.098 7.767c-8.409-2.344-16.663-4.938-24.737-7.772 19.622-14.974 41.599-27.005 65.273-35.437-14.698 11.303-28.342 25.779-40.536 43.209zm-38.208 3.294c9.622 3.631 19.508 6.922 29.617 9.863-27.429 45.106-42.922 102.39-44.1 163.24H15.128c2.115-68.818 33.22-130.456 81.488-173.103zM15.128 263.5h67.005c1.178 60.849 16.671 118.132 44.099 163.239-10.108 2.941-19.993 6.233-29.616 9.865C48.348 393.956 17.243 332.318 15.128 263.5zm94.963 184.173c8.074-2.835 16.323-5.434 24.731-7.778 12.195 17.431 25.839 31.908 40.537 43.212-23.672-8.431-45.647-20.461-65.268-35.434zm267.083-7.772c8.41 2.344 16.669 4.93 24.744 7.765-19.623 14.976-41.602 27.008-65.278 35.44 14.697-11.302 28.34-25.777 40.534-43.205zm38.211-3.299c-9.622-3.631-19.509-6.921-29.618-9.861 27.429-45.107 42.923-102.391 44.101-163.241h67.005c-2.116 68.817-33.221 130.455-81.488 173.102z" fill="#03bed7"/><path d="M461.427 454.384H327.573c-23.788 0-43.073-19.284-43.073-43.073V277.457c0-23.788 19.284-43.073 43.073-43.073h133.855c23.788 0 43.073 19.284 43.073 43.073v133.855c-.001 23.788-19.285 43.072-43.074 43.072z" fill="#eef5f6"/><path d="M461.427 234.384h-30c23.788 0 43.073 19.284 43.073 43.073v133.855c0 23.788-19.284 43.073-43.073 43.073h30c23.788 0 43.073-19.284 43.073-43.073V277.457c0-23.789-19.284-43.073-43.073-43.073z" fill="#deecf1"/><g fill="#2ed1e2"><path d="M469.143 286.997c-22.927-11.477-47.631-17.296-73.425-17.296s-50.497 5.819-73.424 17.295a7.5 7.5 0 0 0-3.35 10.064c1.853 3.703 6.358 5.203 10.063 3.35 20.825-10.424 43.269-15.709 66.71-15.709s45.887 5.285 66.71 15.71c1.078.539 2.223.795 3.352.795a7.5 7.5 0 0 0 3.364-14.209zm-14.667 29.339c-18.332-9.186-38.101-13.843-58.759-13.843s-40.426 4.662-58.75 13.856a7.5 7.5 0 0 0 3.369 14.205 7.47 7.47 0 0 0 3.358-.799c16.217-8.137 33.72-12.263 52.023-12.263s35.812 4.123 52.039 12.253a7.5 7.5 0 0 0 6.72-13.409zm-14.628 29.269c-13.752-6.903-28.6-10.403-44.13-10.403s-30.379 3.505-44.124 10.418a7.5 7.5 0 0 0 3.376 14.202c1.133 0 2.283-.258 3.364-.802 11.634-5.852 24.212-8.818 37.383-8.818s25.756 2.964 37.401 8.81c3.699 1.857 8.209.364 10.067-3.338s.365-8.21-3.337-10.069z"/><circle cx="395.723" cy="396.36" r="19"/></g></svg>