<svg xmlns="http://www.w3.org/2000/svg" height="512" width="512" xmlns:v="https://vecta.io/nano"><circle cx="256" cy="256" fill="#2ed1e2" r="248.5"/><path d="M256 7.5c-5.038 0-10.036.168-15 .464C371.256 15.721 474.5 123.795 474.5 256S371.256 496.279 241 504.036c4.964.296 9.962.464 15 .464 137.243 0 248.5-111.257 248.5-248.5S393.243 7.5 256 7.5z" fill="#02c7dd"/><path d="M437.02 74.98C388.667 26.629 324.38 0 256 0S123.333 26.629 74.98 74.98 0 187.62 0 256s26.629 132.667 74.98 181.02S187.62 512 256 512s132.667-26.629 181.02-74.98S512 324.38 512 256s-26.629-132.667-74.98-181.02zm59.853 173.52h-67.005c-1.178-60.848-16.671-118.13-44.098-163.236 10.151-2.953 20.077-6.263 29.74-9.913a245.74 245.74 0 0 1 10.902 10.236c43.747 43.747 68.591 101.351 70.461 162.913zM304.962 78.554c-6.4-26.99-13.905-47.073-22.448-60.182 30.073 7.69 57.301 28.225 79.142 57.748-17.858 4.246-36.306 7.405-55.101 9.438l-1.593-7.004zm-14.595 3.46l1.134 4.925c-11.745.885-23.598 1.337-35.501 1.337s-23.748-.475-35.495-1.361l1.128-4.9C233.361 32.551 247.477 15 256 15s22.639 17.551 34.367 67.014zM204.606 248.5c.38-54.102 4.865-105.155 12.826-146.758 12.758 1.015 25.637 1.534 38.568 1.534s25.812-.518 38.568-1.532c7.96 41.602 12.445 92.655 12.825 146.756zm102.788 15c-.38 54.102-4.865 105.156-12.826 146.758A486.59 486.59 0 0 0 256 408.724a487.01 487.01 0 0 0-38.568 1.533c-7.96-41.602-12.446-92.656-12.825-146.757zM207.038 78.554l-1.593 7.001c-18.792-2.032-37.227-5.213-55.084-9.458 21.837-29.511 49.059-50.037 79.125-57.725-8.543 13.109-16.049 33.191-22.448 60.182zm-4.601 21.762c-7.969 42.277-12.453 93.774-12.831 148.184H97.137c1.249-61.638 17.833-117.523 44.155-159.156 19.761 4.972 40.248 8.648 61.145 10.972zM189.606 263.5c.378 54.41 4.862 105.907 12.831 148.183-20.897 2.323-41.385 5.999-61.146 10.971-26.321-41.633-42.905-97.517-44.154-159.155h92.469zm15.839 162.946l1.593 7c6.4 26.99 13.905 47.073 22.448 60.182-30.065-7.688-57.287-28.214-79.125-57.725 17.857-4.245 36.292-7.424 55.084-9.457zm16.188 3.54l-1.128-4.901c11.746-.886 23.593-1.361 35.496-1.361s23.748.475 35.495 1.362l-1.128 4.9C278.639 479.449 264.523 497 256 497s-22.639-17.551-34.367-67.014zm83.329 3.46l1.593-7.002c18.791 2.033 37.227 5.214 55.084 9.459-21.838 29.511-49.059 50.037-79.125 57.725 8.543-13.109 16.049-33.191 22.448-60.182zm4.601-21.76c7.969-42.277 12.453-93.775 12.831-148.186h92.469c-1.249 61.639-17.834 117.525-44.156 159.158-19.761-4.972-40.248-8.649-61.144-10.972zM322.394 248.5c-.378-54.409-4.862-105.905-12.83-148.181 20.898-2.323 41.385-5.999 61.146-10.972 26.321 41.633 42.904 97.517 44.153 159.153zm79.679-184.217c-8.124 2.856-16.428 5.47-24.89 7.83-12.278-17.552-26.027-32.11-40.841-43.449 23.529 8.296 45.671 20.27 65.731 35.619zm-267.249 7.819a394.19 394.19 0 0 1-24.89-7.825c20.058-15.347 42.198-27.319 65.723-35.614C160.846 40 147.1 54.555 134.824 72.102zM85.587 85.587c3.542-3.542 7.185-6.945 10.904-10.237 9.661 3.649 19.589 6.957 29.742 9.91-27.429 45.107-42.922 102.39-44.1 163.24H15.127c1.87-61.562 26.714-119.166 70.46-162.913zM15.127 263.5h67.005c1.178 60.849 16.671 118.132 44.099 163.238-10.152 2.953-20.079 6.262-29.741 9.911-3.718-3.292-7.362-6.695-10.904-10.237-43.745-43.746-68.589-101.35-70.459-162.912zm94.811 184.225c8.123-2.856 16.423-5.471 24.884-7.83 12.277 17.549 26.023 32.104 40.835 43.441-23.524-8.294-45.662-20.265-65.719-35.611zm267.236-7.824c8.463 2.359 16.774 4.962 24.897 7.818-20.059 15.349-42.201 27.323-65.728 35.618 14.81-11.337 28.555-25.89 40.831-43.436zm49.239-13.488c-3.542 3.542-7.185 6.945-10.904 10.237-9.661-3.649-19.59-6.955-29.743-9.909 27.429-45.107 42.923-102.391 44.101-163.241h67.005c-1.869 61.562-26.713 119.166-70.459 162.913z" fill="#03bed7"/><path d="M461.427 454.384H327.573c-23.788 0-43.073-19.284-43.073-43.073V277.457c0-23.788 19.284-43.073 43.073-43.073h133.855c23.788 0 43.073 19.284 43.073 43.073v133.855c-.001 23.788-19.285 43.072-43.074 43.072z" fill="#eef5f6"/><path d="M461.427 234.384h-30c23.788 0 43.073 19.284 43.073 43.073v133.855c0 23.788-19.284 43.073-43.073 43.073h30c23.788 0 43.073-19.284 43.073-43.073V277.457c0-23.789-19.284-43.073-43.073-43.073z" fill="#deecf1"/><path d="M417.127 344.629a2 2 0 0 1 0-2.828l36.062-36.062c6.028-6.028 5.853-15.91-.525-21.714-5.973-5.436-15.277-4.911-20.988.8l-35.763 35.763a2 2 0 0 1-2.828 0l-35.763-35.763c-5.711-5.711-15.014-6.237-20.988-.8-6.378 5.804-6.553 15.686-.525 21.714l36.062 36.062a2 2 0 0 1 0 2.828l-35.763 35.763c-5.711 5.711-6.237 15.014-.8 20.988 5.804 6.378 15.686 6.553 21.714.525l36.062-36.062a2 2 0 0 1 2.828 0l35.763 35.763c5.711 5.711 15.014 6.237 20.988.8 6.378-5.804 6.553-15.686.525-21.714z" fill="#fe646f"/></svg>